<svg xmlns="http://www.w3.org/2000/svg" viewBox="0 0 960 32" width="100%" height="32px" fill="none">
  <defs>
    <style>
      .divider-pulse {
        animation: beamPulse 3s ease-in-out infinite alternate;
      }
      @keyframes beamPulse {
        0% { opacity: 0.6; }
        100% { opacity: 1; filter: drop-shadow(0 0 5px #facc15); }
      }
      .bat-glow {
        animation: batGlowAnim 2.5s ease-in-out infinite alternate;
      }
      @keyframes batGlowAnim {
        0% { transform: scale(1); filter: drop-shadow(0 0 2px #facc15); }
        100% { transform: scale(1.08); filter: drop-shadow(0 0 10px #eab308); }
      }
      .laser-travel-left {
        animation: laserLeft 3.5s linear infinite;
      }
      @keyframes laserLeft {
        0% { transform: translateX(0); opacity: 0; }
        30% { opacity: 0.9; }
        70% { opacity: 0.9; }
        100% { transform: translateX(-400px); opacity: 0; }
      }
      .laser-travel-right {
        animation: laserRight 3.5s linear infinite;
      }
      @keyframes laserRight {
        0% { transform: translateX(0); opacity: 0; }
        30% { opacity: 0.9; }
        70% { opacity: 0.9; }
        100% { transform: translateX(400px); opacity: 0; }
      }
    </style>

    <linearGradient id="beamGradLeft" x1="100%" y1="0%" x2="0%" y2="0%">
      <stop offset="0%" stop-color="#facc15" stop-opacity="0.9" />
      <stop offset="60%" stop-color="#eab308" stop-opacity="0.4" />
      <stop offset="100%" stop-color="#ca8a04" stop-opacity="0" />
    </linearGradient>

    <linearGradient id="beamGradRight" x1="0%" y1="0%" x2="100%" y2="0%">
      <stop offset="0%" stop-color="#facc15" stop-opacity="0.9" />
      <stop offset="60%" stop-color="#eab308" stop-opacity="0.4" />
      <stop offset="100%" stop-color="#ca8a04" stop-opacity="0" />
    </linearGradient>

    <filter id="laserGlow" x="-20%" y="-20%" width="140%" height="140%">
      <feGaussianBlur stdDeviation="2" result="blur" />
      <feMerge>
        <feMergeNode in="blur" />
        <feMergeNode in="SourceGraphic" />
      </feMerge>
    </filter>
  </defs>

  <!-- Left & Right Main Guide Beams -->
  <line x1="30" y1="16" x2="445" y2="16" stroke="url(#beamGradLeft)" stroke-width="1.8" class="divider-pulse" />
  <line x1="515" y1="16" x2="930" y2="16" stroke="url(#beamGradRight)" stroke-width="1.8" class="divider-pulse" />

  <!-- Outward Traveling Laser Pulses -->
  <circle cx="440" cy="16" r="3.5" fill="#fef08a" filter="url(#laserGlow)" class="laser-travel-left" />
  <circle cx="520" cy="16" r="3.5" fill="#fef08a" filter="url(#laserGlow)" class="laser-travel-right" />

  <!-- Tech Precision Tick Marks -->
  <circle cx="60" cy="16" r="1.5" fill="#facc15" opacity="0.6" />
  <circle cx="160" cy="16" r="1.5" fill="#facc15" opacity="0.6" />
  <circle cx="800" cy="16" r="1.5" fill="#facc15" opacity="0.6" />
  <circle cx="900" cy="16" r="1.5" fill="#facc15" opacity="0.6" />

  <line x1="110" y1="12" x2="110" y2="20" stroke="#facc15" stroke-width="1.2" opacity="0.5" />
  <line x1="850" y1="12" x2="850" y2="20" stroke="#facc15" stroke-width="1.2" opacity="0.5" />

  <!-- Center Batman Emblem with Dynamic Glow -->
  <g transform="translate(480, 16)" class="bat-glow" style="transform-origin: 480px 16px;">
    <!-- Diamond Backing Frame -->
    <polygon points="0,-13 22,0 0,13 -22,0" fill="#0e131d" stroke="#facc15" stroke-width="1.2" />
    <!-- Bat Silhouette -->
    <path d="M 0 6 C 1.8 4.8 4 4 6 3.8 C 9 3.5 12 4.2 16 0.8 C 13 -0.8 9.5 -0.8 6 -0.3 C 3.8 -2.8 2.2 -3.5 1 -6 L 0.5 -3.8 L -0.5 -3.8 L -1 -6 C -2.2 -3.5 -3.8 -2.8 -6 -0.3 C -9.5 -0.8 -13 -0.8 -16 0.8 C -12 4.2 -9 3.5 -6 3.8 C -4 4 -1.8 4.8 0 6 Z" fill="#facc15" />
  </g>
</svg>