<svg xmlns="http://www.w3.org/2000/svg" viewBox="0 0 960 215" width="100%" height="215px">
  <defs>
    <style>
      @import url('https://fonts.googleapis.com/css2?family=Orbitron:wght@700;800;900&amp;family=JetBrains+Mono:wght@500;700;800&amp;family=Plus+Jakarta+Sans:wght@600;700;800&amp;display=swap');

      * { box-sizing: border-box; }
      text { user-select: none; }

      .hero-title {
        font-family: 'Orbitron', -apple-system, sans-serif;
        font-size: 44px;
        font-weight: 900;
        letter-spacing: 6px;
        fill: url(#goldGrad);
        filter: drop-shadow(0 0 16px rgba(250, 204, 21, 0.75)) drop-shadow(0 0 30px rgba(234, 179, 8, 0.45));
      }
      .hero-tag {
        font-family: 'JetBrains Mono', monospace;
        font-size: 10px;
        font-weight: 800;
        letter-spacing: 2.5px;
        fill: #94a3b8;
      }
      .hero-sub {
        font-family: 'JetBrains Mono', monospace;
        font-size: 13px;
        font-weight: 700;
        letter-spacing: 1.8px;
        fill: #f8fafc;
      }
      .hero-motto {
        font-family: 'JetBrains Mono', monospace;
        font-size: 10.5px;
        font-weight: 600;
        fill: #eab308;
        letter-spacing: 0.8px;
      }
      .tag-pill {
        font-family: 'JetBrains Mono', monospace;
        font-size: 9px;
        font-weight: 800;
        fill: #facc15;
        letter-spacing: 1px;
      }

      /* Animations */
      .name-pulse {
        animation: nameGlow 3s ease-in-out infinite alternate;
      }
      @keyframes nameGlow {
        0% { filter: drop-shadow(0 0 12px rgba(250, 204, 21, 0.55)); }
        100% { filter: drop-shadow(0 0 24px rgba(250, 204, 21, 0.95)) drop-shadow(0 0 45px rgba(234, 179, 8, 0.6)); }
      }

      .right-bat-glowing {
        transform-origin: 0px 0px;
        animation: rightBatGlowAnim 2.5s ease-in-out infinite alternate;
      }
      @keyframes rightBatGlowAnim {
        0% { transform: scale(1); filter: drop-shadow(0 0 8px #facc15) drop-shadow(0 0 18px rgba(234, 179, 8, 0.6)); }
        100% { transform: scale(1.1); filter: drop-shadow(0 0 16px #fef08a) drop-shadow(0 0 32px #facc15) drop-shadow(0 0 52px #ca8a04); }
      }

      .holo-sweep {
        animation: sweepAnim 5s ease-in-out infinite;
      }
      @keyframes sweepAnim {
        0% { transform: translateX(-600px) skewX(-25deg); opacity: 0; }
        15% { opacity: 0.35; }
        45% { transform: translateX(1100px) skewX(-25deg); opacity: 0.35; }
        60%, 100% { transform: translateX(1100px) skewX(-25deg); opacity: 0; }
      }

      .border-pulse {
        animation: borderAnim 4s ease-in-out infinite;
      }
      @keyframes borderAnim {
        0%, 100% { stroke: rgba(250, 204, 21, 0.35); }
        50% { stroke: rgba(250, 204, 21, 0.85); filter: drop-shadow(0 0 6px rgba(250, 204, 21, 0.5)); }
      }
    </style>

    <linearGradient id="bannerBg" x1="0%" y1="0%" x2="100%" y2="100%">
      <stop offset="0%" stop-color="#0e131d" />
      <stop offset="45%" stop-color="#0b0d10" />
      <stop offset="85%" stop-color="#080a0d" />
      <stop offset="100%" stop-color="#040507" />
    </linearGradient>

    <linearGradient id="goldGrad" x1="0%" y1="0%" x2="100%" y2="0%">
      <stop offset="0%" stop-color="#ffffff" />
      <stop offset="25%" stop-color="#fef08a" />
      <stop offset="55%" stop-color="#facc15" />
      <stop offset="85%" stop-color="#eab308" />
      <stop offset="100%" stop-color="#ca8a04" />
    </linearGradient>

    <linearGradient id="sheenHero" x1="0%" y1="0%" x2="100%" y2="0%">
      <stop offset="0%" stop-color="#ffffff" stop-opacity="0" />
      <stop offset="50%" stop-color="#facc15" stop-opacity="0.3" />
      <stop offset="100%" stop-color="#ffffff" stop-opacity="0" />
    </linearGradient>

    <clipPath id="bannerClip">
      <rect x="0" y="0" width="960" height="215" rx="10" ry="10" />
    </clipPath>
  </defs>

  <g clip-path="url(#bannerClip)">
    <!-- Base Background -->
    <rect x="1" y="1" width="958" height="213" rx="9.5" fill="url(#bannerBg)" stroke="rgba(250, 204, 21, 0.4)" stroke-width="1.5" class="border-pulse" />

    <!-- Gotham Skyscraper Silhouettes (Background Skyline) -->
    <g fill="#07090c" opacity="0.95">
      <rect x="40" y="115" width="40" height="100" />
      <rect x="85" y="90" width="48" height="125" />
      <polygon points="109,55 103,90 115,90" fill="#07090c" />
      <rect x="138" y="125" width="35" height="90" />
      <rect x="178" y="105" width="55" height="110" />
      <rect x="238" y="130" width="45" height="85" />
      <rect x="288" y="115" width="50" height="100" />
      <!-- Building glowing windows -->
      <circle cx="98" cy="105" r="1.5" fill="#facc15" opacity="0.6" />
      <circle cx="110" cy="118" r="1.5" fill="#facc15" opacity="0.4" />
      <circle cx="122" cy="130" r="1.5" fill="#facc15" opacity="0.5" />
      <circle cx="195" cy="120" r="1.5" fill="#facc15" opacity="0.5" />
      <circle cx="210" cy="135" r="1.5" fill="#facc15" opacity="0.4" />

      <!-- Right skyline -->
      <rect x="580" y="125" width="40" height="90" />
      <rect x="625" y="105" width="45" height="110" />
      <rect x="675" y="115" width="42" height="100" />
      <rect x="722" y="95" width="55" height="120" />
      <polygon points="750,65 744,95 756,95" fill="#07090c" />
      <rect x="782" y="125" width="38" height="90" />
      <rect x="825" y="108" width="52" height="107" />
      <rect x="882" y="132" width="38" height="83" />
      <!-- Right windows -->
      <circle cx="735" cy="110" r="1.5" fill="#facc15" opacity="0.5" />
      <circle cx="750" cy="125" r="1.5" fill="#facc15" opacity="0.6" />
      <circle cx="765" cy="140" r="1.5" fill="#facc15" opacity="0.4" />
      <circle cx="842" cy="122" r="1.5" fill="#facc15" opacity="0.5" />
    </g>

    <!-- Subtle Tech Circuit Grid Lines -->
    <line x1="30" y1="35" x2="930" y2="35" stroke="#1e293b" stroke-width="1" stroke-dasharray="4 6" />
    <line x1="30" y1="184" x2="930" y2="184" stroke="#1e293b" stroke-width="1" stroke-dasharray="4 6" />

    <!-- Corner Cybernetic Reticles -->
    <!-- Top-Left -->
    <path d="M 10 24 L 10 10 L 24 10" stroke="#facc15" stroke-width="2" fill="none" />
    <!-- Top-Right -->
    <path d="M 950 24 L 950 10 L 936 10" stroke="#facc15" stroke-width="2" fill="none" />
    <!-- Bottom-Left -->
    <path d="M 10 191 L 10 205 L 24 205" stroke="#facc15" stroke-width="2" fill="none" />
    <!-- Bottom-Right -->
    <path d="M 950 191 L 950 205 L 936 205" stroke="#facc15" stroke-width="2" fill="none" />

    <!-- Top Status Bar -->
    <g transform="translate(35, 22)">
      <circle cx="0" cy="0" r="4" fill="#22c55e" />
      <circle cx="0" cy="0" r="7" fill="none" stroke="#22c55e" stroke-width="1" opacity="0.5" />
      <text x="14" y="3.5" class="hero-tag">WAYNE ENTERPRISES // SEC-OPS MAINFRAME v4.2</text>
      <!-- Right side telemetry coordinates -->
      <text x="590" y="3.5" class="hero-tag" fill="#eab308">[ GOTHAM SECTOR 04 // DEFCON 1 • 40.7128° N, 74.0060° W ]</text>
    </g>

    <!-- Center-Left: Minimalist Identity & Mission -->
    <g transform="translate(48, 80)">
      <!-- Name with radiant pulse -->
      <g class="name-pulse">
        <text x="0" y="4" class="hero-title">ANJAN SHETTY</text>
      </g>
      <text x="2" y="31" class="hero-sub">FULL-STACK ARCHITECT // APPLIED AI &amp; SCALABLE SYSTEMS</text>
      <text x="2" y="52" class="hero-motto">"The night is darkest before the code compiles. Building in the dark, shipping into the light."</text>

      <!-- Tactical Tag Pills -->
      <g transform="translate(2, 66)">
        <rect x="0" y="0" width="112" height="19" rx="4" fill="#101520" stroke="rgba(250, 204, 21, 0.4)" stroke-width="1" />
        <text x="10" y="13" class="tag-pill">⚡ FULL-STACK</text>

        <rect x="122" y="0" width="168" height="19" rx="4" fill="#101520" stroke="rgba(250, 204, 21, 0.4)" stroke-width="1" />
        <text x="132" y="13" class="tag-pill">🛡️ DISTRIBUTED SYSTEMS</text>

        <rect x="300" y="0" width="124" height="19" rx="4" fill="#101520" stroke="rgba(250, 204, 21, 0.4)" stroke-width="1" />
        <text x="310" y="13" class="tag-pill">🧠 APPLIED AI/ML</text>

        <rect x="434" y="0" width="128" height="19" rx="4" fill="#101520" stroke="rgba(250, 204, 21, 0.4)" stroke-width="1" />
        <text x="444" y="13" class="tag-pill">🚀 OPEN SOURCE</text>
      </g>
    </g>

    <!-- RIGHT SIDE: PROMINENT GLOWING BAT LOGO (CLEAN & BALANCED) -->
    <g transform="translate(775, 105)">
      <!-- Outer Hex/Diamond Frame -->
      <polygon points="0,-46 46,0 0,46 -46,0" stroke="#facc15" stroke-width="1.2" fill="#101520" opacity="0.9" />
      <polygon points="0,-38 38,0 0,38 -38,0" stroke="#eab308" stroke-width="0.8" fill="none" opacity="0.4" stroke-dasharray="3 3" />
      <!-- Corner ticks -->
      <line x1="-52" y1="0" x2="-43" y2="0" stroke="#facc15" stroke-width="1.5" />
      <line x1="43" y1="0" x2="52" y2="0" stroke="#facc15" stroke-width="1.5" />
      <line x1="0" y1="-52" x2="0" y2="-43" stroke="#facc15" stroke-width="1.5" />
      <line x1="0" y1="43" x2="0" y2="52" stroke="#facc15" stroke-width="1.5" />

      <!-- Prominent Glowing Gold Batman Silhouette -->
      <g class="right-bat-glowing" style="transform-origin: 0px 0px;">
        <path d="M 0 15 C 4.5 12 10 10 15 9 C 22 8 30 10 38 1 C 31 -2 23 -2 14 -1 C 9 -6 6 -9 2 -14 L 1 -9 L -1 -9 L -2 -14 C -6 -9 -9 -6 -14 -1 C -23 -2 -31 -2 -38 1 C -30 10 -22 8 -15 9 C -10 10 -4.5 12 0 15 Z" fill="url(#goldGrad)" />
      </g>
      <text x="0" y="60" text-anchor="middle" font-family="'JetBrains Mono', monospace" font-size="9px" font-weight="800" fill="#facc15" letter-spacing="1.5px">BAT-SIGNAL // 100%</text>
    </g>

    <!-- Holographic Light Sweep -->
    <rect x="0" y="0" width="220" height="230" fill="url(#sheenHero)" class="holo-sweep" pointer-events="none" />
  </g>
</svg>